<mxfile host="app.diagrams.net" modified="2022-12-03T01:51:41.597Z" agent="5.0 (Windows NT 6.1; Win64; x64) AppleWebKit/537.36 (KHTML, like Gecko) Chrome/100.0.4896.127 Safari/537.36" version="20.6.0" etag="-xBrDzdfl5YXJt2O67Af" type="github">
  <diagram id="RXXUCTKQwMakJlzo57wv" name="第 1 页">
    <mxGraphModel dx="401662" dy="800" grid="1" gridSize="10" guides="1" tooltips="1" connect="1" arrows="1" fold="1" page="1" pageScale="1" pageWidth="400000" pageHeight="300000" math="0" shadow="0">
      <root>
        <mxCell id="0" />
        <mxCell id="1" parent="0" />
        <mxCell id="KNFEzPkfdMRavhzlrTzj-1" value="复杂性" style="ellipse;whiteSpace=wrap;html=1;" vertex="1" parent="1">
          <mxGeometry x="810" y="300" width="120" height="80" as="geometry" />
        </mxCell>
        <mxCell id="KNFEzPkfdMRavhzlrTzj-2" value="人性&amp;nbsp;" style="rounded=1;whiteSpace=wrap;html=1;" vertex="1" parent="1">
          <mxGeometry x="290" y="200" width="120" height="60" as="geometry" />
        </mxCell>
        <mxCell id="KNFEzPkfdMRavhzlrTzj-3" value="多要素&lt;br&gt;影响要素多、且相互之间有共生与竞争，这种关系也会变化" style="rounded=1;whiteSpace=wrap;html=1;" vertex="1" parent="1">
          <mxGeometry x="550" y="310" width="120" height="60" as="geometry" />
        </mxCell>
        <mxCell id="KNFEzPkfdMRavhzlrTzj-4" value="形态&lt;br&gt;每个人买入、卖出逻辑不通" style="rounded=1;whiteSpace=wrap;html=1;" vertex="1" parent="1">
          <mxGeometry x="550" y="400" width="120" height="60" as="geometry" />
        </mxCell>
        <mxCell id="KNFEzPkfdMRavhzlrTzj-5" value="特点" style="ellipse;whiteSpace=wrap;html=1;" vertex="1" parent="1">
          <mxGeometry x="1190" y="290" width="120" height="80" as="geometry" />
        </mxCell>
        <mxCell id="KNFEzPkfdMRavhzlrTzj-6" value="反身性" style="rounded=1;whiteSpace=wrap;html=1;" vertex="1" parent="1">
          <mxGeometry x="1350" y="220" width="120" height="60" as="geometry" />
        </mxCell>
        <mxCell id="KNFEzPkfdMRavhzlrTzj-7" value="动态&lt;br&gt;变化造就情绪" style="rounded=1;whiteSpace=wrap;html=1;" vertex="1" parent="1">
          <mxGeometry x="550" y="240" width="120" height="60" as="geometry" />
        </mxCell>
        <mxCell id="KNFEzPkfdMRavhzlrTzj-8" value="环境" style="rounded=1;whiteSpace=wrap;html=1;" vertex="1" parent="1">
          <mxGeometry x="540" y="100" width="120" height="60" as="geometry" />
        </mxCell>
        <mxCell id="KNFEzPkfdMRavhzlrTzj-9" value="大局、趋势" style="rounded=1;whiteSpace=wrap;html=1;" vertex="1" parent="1">
          <mxGeometry x="570" y="660" width="120" height="60" as="geometry" />
        </mxCell>
        <mxCell id="KNFEzPkfdMRavhzlrTzj-10" value="模式内" style="rounded=1;whiteSpace=wrap;html=1;" vertex="1" parent="1">
          <mxGeometry x="760" y="670" width="120" height="60" as="geometry" />
        </mxCell>
        <mxCell id="KNFEzPkfdMRavhzlrTzj-11" value="确定性" style="rounded=1;whiteSpace=wrap;html=1;" vertex="1" parent="1">
          <mxGeometry x="980" y="670" width="120" height="60" as="geometry" />
        </mxCell>
        <mxCell id="KNFEzPkfdMRavhzlrTzj-12" value="仓位" style="rounded=1;whiteSpace=wrap;html=1;" vertex="1" parent="1">
          <mxGeometry x="1140" y="660" width="120" height="60" as="geometry" />
        </mxCell>
        <mxCell id="KNFEzPkfdMRavhzlrTzj-14" value="辨识度" style="rounded=1;whiteSpace=wrap;html=1;" vertex="1" parent="1">
          <mxGeometry x="780" y="750" width="120" height="60" as="geometry" />
        </mxCell>
        <mxCell id="KNFEzPkfdMRavhzlrTzj-15" value="盈亏比" style="rounded=1;whiteSpace=wrap;html=1;" vertex="1" parent="1">
          <mxGeometry x="790" y="810" width="120" height="60" as="geometry" />
        </mxCell>
        <mxCell id="KNFEzPkfdMRavhzlrTzj-16" value="欲望控制&lt;br&gt;抛弃暴富的欲望、享受生命的馈赠，简简单单、做个随性的人" style="rounded=1;whiteSpace=wrap;html=1;" vertex="1" parent="1">
          <mxGeometry x="560" y="720" width="120" height="60" as="geometry" />
        </mxCell>
        <mxCell id="KNFEzPkfdMRavhzlrTzj-17" value="稳定盈利" style="rounded=1;whiteSpace=wrap;html=1;" vertex="1" parent="1">
          <mxGeometry x="1320" y="650" width="120" height="60" as="geometry" />
        </mxCell>
        <mxCell id="KNFEzPkfdMRavhzlrTzj-19" value="&lt;h1&gt;&lt;span style=&quot;color: rgb(34, 34, 34); font-family: system-ui, -apple-system, &amp;quot;Segoe UI&amp;quot;, Rototo, Helvetica, Arial, sans-serif; font-size: 18px; font-weight: 400; background-color: rgb(255, 255, 255);&quot;&gt;盘感，是每个优秀玩家的基本功，那如何具体的训练呢？虽然盘感是来源于盘中的本能快速反应，但是实际上这种本能的获得：一方面是来源于每天盘中的操练，另一方面更重要的是来源于盘前盘后充分的准备工作。&lt;/span&gt;&lt;br style=&quot;box-sizing: border-box; color: rgb(34, 34, 34); font-family: system-ui, -apple-system, &amp;quot;Segoe UI&amp;quot;, Rototo, Helvetica, Arial, sans-serif; font-size: 18px; font-weight: 400; background-color: rgb(255, 255, 255);&quot;&gt;&lt;span style=&quot;color: rgb(34, 34, 34); font-family: system-ui, -apple-system, &amp;quot;Segoe UI&amp;quot;, Rototo, Helvetica, Arial, sans-serif; font-size: 18px; font-weight: 400; background-color: rgb(255, 255, 255);&quot;&gt;首先我们要知道，股市关键的时间段有四个：&lt;/span&gt;&lt;br style=&quot;box-sizing: border-box; color: rgb(34, 34, 34); font-family: system-ui, -apple-system, &amp;quot;Segoe UI&amp;quot;, Rototo, Helvetica, Arial, sans-serif; font-size: 18px; font-weight: 400; background-color: rgb(255, 255, 255);&quot;&gt;&lt;span style=&quot;color: rgb(34, 34, 34); font-family: system-ui, -apple-system, &amp;quot;Segoe UI&amp;quot;, Rototo, Helvetica, Arial, sans-serif; font-size: 18px; font-weight: 400; background-color: rgb(255, 255, 255);&quot;&gt;1.开盘&lt;/span&gt;&lt;br style=&quot;box-sizing: border-box; color: rgb(34, 34, 34); font-family: system-ui, -apple-system, &amp;quot;Segoe UI&amp;quot;, Rototo, Helvetica, Arial, sans-serif; font-size: 18px; font-weight: 400; background-color: rgb(255, 255, 255);&quot;&gt;&lt;span style=&quot;color: rgb(34, 34, 34); font-family: system-ui, -apple-system, &amp;quot;Segoe UI&amp;quot;, Rototo, Helvetica, Arial, sans-serif; font-size: 18px; font-weight: 400; background-color: rgb(255, 255, 255);&quot;&gt;2.10：30左右&lt;/span&gt;&lt;br style=&quot;box-sizing: border-box; color: rgb(34, 34, 34); font-family: system-ui, -apple-system, &amp;quot;Segoe UI&amp;quot;, Rototo, Helvetica, Arial, sans-serif; font-size: 18px; font-weight: 400; background-color: rgb(255, 255, 255);&quot;&gt;&lt;span style=&quot;color: rgb(34, 34, 34); font-family: system-ui, -apple-system, &amp;quot;Segoe UI&amp;quot;, Rototo, Helvetica, Arial, sans-serif; font-size: 18px; font-weight: 400; background-color: rgb(255, 255, 255);&quot;&gt;3.14：30左右。&lt;/span&gt;&lt;br style=&quot;box-sizing: border-box; color: rgb(34, 34, 34); font-family: system-ui, -apple-system, &amp;quot;Segoe UI&amp;quot;, Rototo, Helvetica, Arial, sans-serif; font-size: 18px; font-weight: 400; background-color: rgb(255, 255, 255);&quot;&gt;&lt;span style=&quot;color: rgb(34, 34, 34); font-family: system-ui, -apple-system, &amp;quot;Segoe UI&amp;quot;, Rototo, Helvetica, Arial, sans-serif; font-size: 18px; font-weight: 400; background-color: rgb(255, 255, 255);&quot;&gt;4.偶尔，下午开盘时间。&lt;/span&gt;&lt;br style=&quot;box-sizing: border-box; color: rgb(34, 34, 34); font-family: system-ui, -apple-system, &amp;quot;Segoe UI&amp;quot;, Rototo, Helvetica, Arial, sans-serif; font-size: 18px; font-weight: 400; background-color: rgb(255, 255, 255);&quot;&gt;&lt;span style=&quot;color: rgb(34, 34, 34); font-family: system-ui, -apple-system, &amp;quot;Segoe UI&amp;quot;, Rototo, Helvetica, Arial, sans-serif; font-size: 18px; font-weight: 400; background-color: rgb(255, 255, 255);&quot;&gt;哪个时间段重要？这个与指数周期，情绪周期有很大关键，甚至说交易模式。这个我会在小分队细讲。&lt;/span&gt;&lt;br style=&quot;box-sizing: border-box; color: rgb(34, 34, 34); font-family: system-ui, -apple-system, &amp;quot;Segoe UI&amp;quot;, Rototo, Helvetica, Arial, sans-serif; font-size: 18px; font-weight: 400; background-color: rgb(255, 255, 255);&quot;&gt;&lt;br style=&quot;box-sizing: border-box; color: rgb(34, 34, 34); font-family: system-ui, -apple-system, &amp;quot;Segoe UI&amp;quot;, Rototo, Helvetica, Arial, sans-serif; font-size: 18px; font-weight: 400; background-color: rgb(255, 255, 255);&quot;&gt;&lt;span style=&quot;color: rgb(34, 34, 34); font-family: system-ui, -apple-system, &amp;quot;Segoe UI&amp;quot;, Rototo, Helvetica, Arial, sans-serif; font-size: 18px; font-weight: 400; background-color: rgb(255, 255, 255);&quot;&gt;了解这个后，我再来和大家说如何训练我们的盘感（你在任何地方都找不到的干货），值得收藏！&lt;/span&gt;&lt;br style=&quot;box-sizing: border-box; color: rgb(34, 34, 34); font-family: system-ui, -apple-system, &amp;quot;Segoe UI&amp;quot;, Rototo, Helvetica, Arial, sans-serif; font-size: 18px; font-weight: 400; background-color: rgb(255, 255, 255);&quot;&gt;&lt;br style=&quot;box-sizing: border-box; color: rgb(34, 34, 34); font-family: system-ui, -apple-system, &amp;quot;Segoe UI&amp;quot;, Rototo, Helvetica, Arial, sans-serif; font-size: 18px; font-weight: 400; background-color: rgb(255, 255, 255);&quot;&gt;&lt;span style=&quot;color: rgb(34, 34, 34); font-family: system-ui, -apple-system, &amp;quot;Segoe UI&amp;quot;, Rototo, Helvetica, Arial, sans-serif; font-size: 18px; font-weight: 400; background-color: rgb(255, 255, 255);&quot;&gt; 1：收盘之后，要认真细致的复盘，这是一个非常重要的环节。（关于如何复盘，我会给大家出一个视频）。在复盘的过程中，有一个关键环节，就是你要对自己的亏损的单子进行深度的反思。并且在反思的时候，你要把思维拉回到下单之前的状态，回顾一下当时下单之前你是怎么想的，为什么会这样想，这样想对不对？很多东西，站在事前和事后的角度去看，完全不同。你要找到失误的原因，就必须让自己的思维回到事前的状态。对自己的思维复盘。&lt;/span&gt;&lt;br style=&quot;box-sizing: border-box; color: rgb(34, 34, 34); font-family: system-ui, -apple-system, &amp;quot;Segoe UI&amp;quot;, Rototo, Helvetica, Arial, sans-serif; font-size: 18px; font-weight: 400; background-color: rgb(255, 255, 255);&quot;&gt;&lt;br style=&quot;box-sizing: border-box; color: rgb(34, 34, 34); font-family: system-ui, -apple-system, &amp;quot;Segoe UI&amp;quot;, Rototo, Helvetica, Arial, sans-serif; font-size: 18px; font-weight: 400; background-color: rgb(255, 255, 255);&quot;&gt;&lt;span style=&quot;color: rgb(34, 34, 34); font-family: system-ui, -apple-system, &amp;quot;Segoe UI&amp;quot;, Rototo, Helvetica, Arial, sans-serif; font-size: 18px; font-weight: 400; background-color: rgb(255, 255, 255);&quot;&gt;2：开盘之前，你要对选出的目标股进行充分的行情预演，高开低开之后应该怎么走？并去思考预设的每一种走势如果发生，意味着什么？高开低走意味着什么，低开高走又意味着什么？你又该如何应对？很多人做单子的时候，根本没有这一步的准备，一开盘管你三七二十一，一通乱操作，买错了一个就再买一个，越买越错，越错越买，买着买着就手里面一堆的股票，本来就几万十几万的账户，结果手里面五六个票。想想这得有多可怕？这样的交易，非但无法让你得到任何有效的经验，更是在浪费时间和本金。真正明智的做法是把每一笔单子做精细，盘前充分的预演，盘中根据预演迅速的应对，盘后根据当天的结果深度的反思。一笔精细的交易获得的经验教训，顶你50笔胡乱的交易。只有每天如此，循环往复！你的思维之刃才会越来越锋利！记得当年我学打板的时候，出现亏损的单子，找不到失误的原因，我走路吃饭睡觉都在琢磨到底错在哪里？这个过程很艰难，但是失误的原因一旦想通之后，往往就是往前大进一步！正所谓不积小步，难以行千里。&lt;/span&gt;&lt;br style=&quot;box-sizing: border-box; color: rgb(34, 34, 34); font-family: system-ui, -apple-system, &amp;quot;Segoe UI&amp;quot;, Rototo, Helvetica, Arial, sans-serif; font-size: 18px; font-weight: 400; background-color: rgb(255, 255, 255);&quot;&gt;&lt;br style=&quot;box-sizing: border-box; color: rgb(34, 34, 34); font-family: system-ui, -apple-system, &amp;quot;Segoe UI&amp;quot;, Rototo, Helvetica, Arial, sans-serif; font-size: 18px; font-weight: 400; background-color: rgb(255, 255, 255);&quot;&gt;&lt;span style=&quot;color: rgb(34, 34, 34); font-family: system-ui, -apple-system, &amp;quot;Segoe UI&amp;quot;, Rototo, Helvetica, Arial, sans-serif; font-size: 18px; font-weight: 400; background-color: rgb(255, 255, 255);&quot;&gt;3：再来说盘中的应对，如果盘中的走势，正好是你盘前预演的走势，那么果断出击，不要怕出错，就是要敢于犯错。错了再进入盘后反思的流程，找到错的原因。如果盘中的变化，是你之前根本就没有想到的呢？如果是你还没有买进，那么就先看懂这种变化，如果看不懂，就不要动，不要急于进场，局势你都没看懂就杀进去？行情在涨，但是你没看懂，就说明这个上涨和你没关系，这钱不是你该赚的。只做自己能看懂的交易，这是一个基本的原则！如果你头一天已经买了，今天你手里个股的盘面变化，完全超出你的预期，无论这种变化对你是有利还是不利，除非你能迅速的明白这种变化的原因，不然你就要做好随时离场的准备，迅速的做好应对的计划。只有可控的交易才是正确的交易，一切不可控的变化发生的时候，你要做的就是先跳出来想明白，想明白了再进场。&lt;/span&gt;&lt;br&gt;&lt;/h1&gt;" style="text;html=1;strokeColor=none;fillColor=none;spacing=5;spacingTop=-20;whiteSpace=wrap;overflow=hidden;rounded=0;" vertex="1" parent="1">
          <mxGeometry x="-610" y="400" width="990" height="690" as="geometry" />
        </mxCell>
      </root>
    </mxGraphModel>
  </diagram>
</mxfile>
